<svg id="SvgjsSvg1011" width="288" height="288" xmlns="http://www.w3.org/2000/svg" version="1.1" xmlns:xlink="http://www.w3.org/1999/xlink" xmlns:svgjs="http://svgjs.com/svgjs"><defs id="SvgjsDefs1012"></defs><g id="SvgjsG1013"><svg xmlns="http://www.w3.org/2000/svg" viewBox="0 0 512 512" width="288" height="288"><!--! Font Awesome Pro 6.1.1 by @fontawesome - https://fontawesome.com License - https://fontawesome.com/license (Commercial License) Copyright 2022 Fonticons, Inc.--><path d="M200 160C186.8 160 176 170.8 176 184v144C176 341.3 186.8 352 200 352S224 341.3 224 328v-144C224 170.8 213.3 160 200 160zM312 160C298.8 160 288 170.8 288 184v144c0 13.25 10.75 24 24 24s24-10.75 24-24v-144C336 170.8 325.3 160 312 160zM256 0C114.6 0 0 114.6 0 256s114.6 256 256 256s256-114.6 256-256S397.4 0 256 0zM256 464c-114.7 0-208-93.31-208-208S141.3 48 256 48s208 93.31 208 208S370.7 464 256 464z" fill="#ffffff" class="color000 svgShape"></path></svg></g></svg>